# Blender 5.0.0
# www.blender.org
mtllib cuteCarrot.mtl
o Plane
v -0.068087 -0.248096 0.068087
v 0.068087 -0.248096 0.068087
v -0.068087 -0.248096 -0.068087
v 0.068087 -0.248096 -0.068087
v -0.143904 0.191289 0.143904
v 0.143904 0.191289 0.143904
v -0.143904 0.191289 -0.143904
v 0.143904 0.191289 -0.143904
v -0.087293 0.251516 0.087293
v 0.087293 0.251516 0.087293
v -0.087293 0.251516 -0.087293
v 0.087293 0.251516 -0.087293
v 0.149978 0.096880 -0.149978
v 0.142282 0.034125 -0.142282
v 0.145037 0.064352 -0.145037
v 0.142282 0.034125 0.142282
v 0.149978 0.096880 0.149978
v 0.145037 0.064352 0.145037
v -0.149978 0.096880 0.149978
v -0.142282 0.034125 0.142282
v -0.145037 0.064352 0.145037
v -0.142282 0.034125 -0.142282
v -0.149978 0.096880 -0.149978
v -0.145037 0.064352 -0.145037
v 0.129399 -0.047009 -0.129399
v 0.113707 -0.121629 -0.113707
v 0.121833 -0.076412 -0.121833
v 0.113707 -0.121629 0.113707
v 0.129399 -0.047009 0.129399
v 0.121833 -0.076412 0.121833
v -0.129399 -0.047009 0.129399
v -0.113707 -0.121629 0.113707
v -0.121833 -0.076412 0.121833
v -0.113707 -0.121629 -0.113707
v -0.129399 -0.047009 -0.129399
v -0.121833 -0.076412 -0.121833
v -0.049948 0.457936 0.138408
v -0.042448 0.254597 0.001721
v -0.054514 0.405746 0.195299
v -0.042448 0.220958 0.053913
v 0.028543 0.455545 0.142655
v 0.016477 0.254148 0.001721
v 0.023977 0.403356 0.199547
v 0.016477 0.220429 0.053913
v -0.061366 0.371573 0.042942
v -0.062888 0.316794 0.125785
v 0.035395 0.315536 0.127201
v 0.036917 0.370558 0.044358
v -0.107924 0.429948 -0.114032
v 0.010334 0.219253 -0.045078
v -0.156487 0.377758 -0.144018
v -0.036126 0.185411 -0.068858
v -0.147467 0.427557 -0.046097
v -0.016514 0.218612 0.007376
v -0.196030 0.375368 -0.076083
v -0.062974 0.184683 -0.016404
v -0.017741 0.340954 -0.080700
v -0.090792 0.284849 -0.119800
v -0.136832 0.283347 -0.032956
v -0.063781 0.339705 0.006144
v 0.112847 0.429948 -0.056595
v -0.002499 0.218602 0.017125
v 0.161700 0.377758 -0.086106
v 0.039872 0.183675 -0.013349
v 0.070466 0.427557 -0.122797
v -0.036905 0.219312 -0.030713
v 0.119319 0.375368 -0.152308
v 0.005467 0.184496 -0.061187
v 0.042012 0.340305 0.008415
v 0.110156 0.282989 -0.038720
v 0.053919 0.282793 -0.119337
v -0.014225 0.339877 -0.072202
v -0.080444 -0.260528 -0.000000
v -0.000000 -0.260528 0.080444
v 0.080444 -0.260528 0.000000
v -0.000000 -0.260528 -0.080444
v -0.197869 0.190572 0.000000
v 0.000000 0.190572 0.197869
v 0.197869 0.190572 -0.000000
v -0.000000 0.190572 -0.197869
v -0.103600 0.254825 -0.000000
v 0.000000 0.254825 0.103600
v 0.103600 0.254825 0.000000
v 0.000000 0.254825 -0.103600
v 0.122030 0.231559 -0.122030
v 0.122030 0.231559 0.122030
v -0.122030 0.231559 0.122030
v -0.122030 0.231559 -0.122030
v 0.146940 0.073949 0.146940
v 0.000000 0.095774 0.206220
v -0.146940 0.073949 0.146940
v 0.000000 0.063197 0.199426
v 0.143817 0.055165 0.143817
v -0.143817 0.055165 0.143817
v -0.000000 0.032914 0.195637
v -0.146940 0.073949 -0.146940
v -0.000000 0.095774 -0.206220
v 0.146940 0.073949 -0.146940
v 0.000000 0.063197 -0.199426
v -0.143817 0.055165 -0.143817
v 0.143817 0.055165 -0.143817
v 0.000000 0.032914 -0.195637
v -0.206220 0.095774 0.000000
v -0.199426 0.063197 -0.000000
v -0.195637 0.032914 -0.000000
v 0.206220 0.095774 -0.000000
v 0.199426 0.063197 -0.000000
v 0.195637 0.032914 0.000000
v 0.151551 0.140909 -0.151551
v -0.151551 0.140909 -0.151551
v 0.151551 0.140909 0.151551
v -0.151551 0.140909 0.151551
v 0.124219 -0.068099 0.124219
v -0.000000 -0.048241 0.177923
v -0.124219 -0.068099 0.124219
v -0.000000 -0.077585 0.167521
v 0.120211 -0.086502 0.120211
v -0.120211 -0.086502 0.120211
v 0.000000 -0.122748 0.156348
v -0.124219 -0.068099 -0.124219
v 0.000000 -0.048241 -0.177923
v 0.124219 -0.068099 -0.124219
v 0.000000 -0.077585 -0.167521
v -0.120211 -0.086502 -0.120211
v 0.120211 -0.086502 -0.120211
v 0.000000 -0.122748 -0.156348
v -0.177923 -0.048241 -0.000000
v -0.167521 -0.077585 0.000000
v -0.156348 -0.122748 0.000000
v 0.177923 -0.048241 0.000000
v 0.167521 -0.077585 -0.000000
v 0.156348 -0.122748 -0.000000
v 0.096284 -0.191669 0.096284
v 0.096284 -0.191669 -0.096284
v 0.137755 -0.006055 0.137755
v 0.137755 -0.006055 -0.137755
v -0.096284 -0.191669 -0.096284
v -0.137755 -0.006055 -0.137755
v -0.096284 -0.191669 0.096284
v -0.137755 -0.006055 0.137755
v -0.060819 0.438241 0.173078
v -0.054309 0.302701 0.010135
v -0.047889 0.229493 0.024413
v -0.064735 0.370456 0.171325
v -0.016003 0.404045 0.209906
v -0.012986 0.208870 0.055328
v 0.034700 0.368254 0.175105
v 0.034848 0.435081 0.178692
v 0.021918 0.228885 0.024413
v 0.038764 0.428567 0.098273
v -0.009968 0.469277 0.141864
v -0.012986 0.249144 -0.006502
v -0.060671 0.430694 0.094493
v -0.054499 0.256889 0.082980
v 0.028338 0.256180 0.083157
v 0.028528 0.302143 0.010312
v -0.011939 0.381025 0.028117
v 0.054584 0.343173 0.086045
v -0.014032 0.305492 0.142026
v -0.080556 0.344735 0.084098
v -0.133833 0.410253 -0.139506
v 0.008247 0.268923 -0.059470
v -0.007387 0.193803 -0.060261
v -0.130488 0.341467 -0.142193
v -0.187036 0.376057 -0.116392
v -0.050810 0.172995 -0.043276
v -0.179159 0.339048 -0.055401
v -0.182419 0.407093 -0.056903
v -0.039193 0.192958 0.001880
v -0.112617 0.400579 -0.016777
v -0.129216 0.441289 -0.080018
v 0.004230 0.213471 -0.015105
v -0.063946 0.402707 -0.103569
v -0.056510 0.222556 -0.092829
v -0.094410 0.221597 -0.019171
v -0.029652 0.268129 0.014188
v -0.027064 0.350580 -0.029947
v -0.108940 0.311527 0.002877
v -0.127509 0.273223 -0.083709
v -0.045634 0.313418 -0.116533
v 0.147342 0.410253 -0.068013
v 0.011257 0.268123 0.021841
v 0.019100 0.192517 0.008292
v 0.148205 0.340606 -0.063810
v 0.151073 0.376057 -0.125899
v 0.023819 0.171954 -0.038094
v 0.093215 0.338657 -0.146743
v 0.096041 0.407093 -0.148957
v -0.021659 0.193460 -0.048380
v 0.028467 0.400579 -0.105181
v 0.092310 0.441289 -0.091070
v -0.026378 0.213637 -0.001993
v 0.083457 0.402707 -0.022248
v 0.070506 0.220412 -0.020537
v 0.022283 0.221244 -0.087891
v -0.036966 0.268756 -0.045513
v 0.001117 0.350452 -0.023056
v 0.009303 0.311613 -0.110885
v 0.094814 0.271755 -0.087866
v 0.086628 0.312044 -0.000036
v -0.000000 -0.287225 -0.000000
v 0.167306 0.231509 0.000000
v 0.000000 -0.193705 0.131934
v 0.000000 -0.193705 -0.131934
v -0.131934 -0.193705 0.000000
v 0.000000 0.261421 -0.000000
v -0.167306 0.231509 -0.000000
v 0.000000 0.231509 -0.167306
v -0.000000 0.231509 0.167306
v 0.000000 -0.007315 0.189413
v -0.208382 0.139945 0.000000
v 0.000000 -0.007315 -0.189413
v -0.000000 0.139945 0.208382
v -0.189413 -0.007315 0.000000
v 0.189413 -0.007315 -0.000000
v 0.208382 0.139945 0.000000
v 0.000000 0.072802 0.202043
v 0.000000 0.053998 0.197748
v 0.000000 0.072802 -0.202043
v 0.000000 0.053998 -0.197748
v -0.202043 0.072802 -0.000000
v -0.197748 0.053998 -0.000000
v 0.202043 0.072802 0.000000
v 0.197748 0.053998 0.000000
v 0.000000 0.139945 -0.208382
v 0.000000 -0.069294 0.170801
v 0.000000 -0.087668 0.165291
v 0.000000 -0.069294 -0.170801
v 0.000000 -0.087668 -0.165291
v -0.170801 -0.069294 -0.000000
v -0.165291 -0.087668 0.000000
v 0.170801 -0.069294 -0.000000
v 0.165291 -0.087668 -0.000000
v 0.131934 -0.193705 -0.000000
v -0.069758 0.279320 0.046189
v -0.013116 0.246938 0.096234
v 0.043787 0.278447 0.046432
v -0.012855 0.309923 -0.003613
v -0.012986 0.449284 0.190381
v -0.012986 0.211173 0.017271
v -0.010139 0.441714 0.082760
v 0.055427 0.398643 0.138128
v -0.015833 0.358232 0.188200
v -0.081398 0.401624 0.132831
v -0.016807 0.245226 -0.089650
v -0.087164 0.212383 -0.062030
v -0.068758 0.244019 0.011315
v 0.001598 0.276129 -0.016305
v -0.171030 0.421296 -0.104810
v -0.016932 0.174882 -0.025936
v -0.076526 0.413726 -0.053241
v -0.155687 0.370388 -0.020103
v -0.167791 0.328788 -0.106350
v -0.088631 0.373525 -0.139487
v 0.049548 0.243510 0.013332
v 0.057104 0.210862 -0.061872
v -0.016552 0.244518 -0.078991
v -0.024109 0.276212 -0.003786
v 0.133460 0.421296 -0.116949
v -0.007078 0.174600 -0.015873
v 0.044427 0.413726 -0.056423
v 0.051095 0.370324 -0.141979
v 0.133351 0.327955 -0.113364
v 0.126683 0.373196 -0.027807
vn -0.4806 -0.7335 0.4806
vn 0.4806 -0.7335 0.4806
vn -0.4806 -0.7335 -0.4806
vn 0.4806 -0.7335 -0.4806
vn -0.6482 0.3997 0.6482
vn 0.6482 0.3997 0.6482
vn -0.6482 0.3997 -0.6482
vn 0.6482 0.3997 -0.6482
vn -0.1878 0.9641 0.1878
vn 0.1878 0.9641 0.1878
vn -0.1878 0.9641 -0.1878
vn 0.1878 0.9641 -0.1878
vn 0.7024 -0.1151 -0.7024
vn 0.7012 -0.1288 -0.7012
vn 0.6881 -0.2301 -0.6881
vn 0.7012 -0.1288 0.7012
vn 0.7024 -0.1151 0.7024
vn 0.6881 -0.2301 0.6881
vn -0.7024 -0.1151 0.7024
vn -0.7012 -0.1288 0.7012
vn -0.6881 -0.2301 0.6881
vn -0.7012 -0.1288 -0.7012
vn -0.7024 -0.1151 -0.7024
vn -0.6881 -0.2301 -0.6881
vn 0.6744 -0.3005 -0.6744
vn 0.6768 -0.2899 -0.6768
vn 0.6731 -0.3065 -0.6731
vn 0.6768 -0.2899 0.6768
vn 0.6744 -0.3005 0.6744
vn 0.6731 -0.3065 0.6731
vn -0.6744 -0.3005 0.6744
vn -0.6768 -0.2899 0.6768
vn -0.6731 -0.3065 0.6731
vn -0.6768 -0.2899 -0.6768
vn -0.6744 -0.3005 -0.6744
vn -0.6731 -0.3065 -0.6731
vn -0.5425 0.8385 -0.0511
vn -0.5841 -0.2132 -0.7832
vn -0.6187 0.0195 0.7854
vn -0.6225 -0.7403 0.2538
vn 0.6023 0.7983 -0.0033
vn 0.5832 -0.2151 -0.7833
vn 0.5429 -0.0279 0.8394
vn 0.6155 -0.7456 0.2554
vn -0.6836 0.3780 -0.6244
vn -0.7332 -0.4568 0.5038
vn 0.7067 -0.4730 0.5261
vn 0.7096 0.3624 -0.6043
vn 0.2928 0.8383 -0.4598
vn 0.9637 -0.2089 -0.1662
vn -0.4161 0.0240 -0.9090
vn 0.0514 -0.7318 -0.6796
vn -0.2718 0.7979 0.5380
vn 0.4298 -0.2116 0.8778
vn -0.9945 -0.0225 0.1021
vn -0.5187 -0.7390 0.4298
vn 0.8730 0.3668 -0.3214
vn -0.1210 -0.4433 -0.8882
vn -0.7999 -0.4594 0.3862
vn 0.2191 0.3507 0.9105
vn 0.2759 0.8379 0.4710
vn -0.2958 -0.2100 0.9319
vn 0.9986 0.0269 0.0456
vn 0.5698 -0.7412 0.3549
vn -0.3546 0.7978 -0.4876
vn -0.9780 -0.2075 -0.0197
vn 0.3625 -0.0201 -0.9318
vn -0.1611 -0.7338 -0.6599
vn -0.1105 0.3643 0.9247
vn 0.8472 -0.4415 0.2956
vn 0.0164 -0.4567 -0.8895
vn -0.9098 0.3519 -0.2203
vn -0.5803 -0.8144 -0.0000
vn -0.0000 -0.8144 0.5803
vn 0.5803 -0.8144 -0.0000
vn -0.0000 -0.8144 -0.5803
vn -0.9196 0.3928 -0.0000
vn -0.0000 0.3928 0.9196
vn 0.9196 0.3928 -0.0000
vn -0.0000 0.3928 -0.9196
vn -0.2307 0.9730 -0.0000
vn -0.0000 0.9730 0.2307
vn 0.2307 0.9730 -0.0000
vn -0.0000 0.9730 -0.2307
vn 0.4507 0.7705 -0.4507
vn 0.4507 0.7705 0.4507
vn -0.4507 0.7705 0.4507
vn -0.4507 0.7705 -0.4507
vn 0.6891 -0.2243 0.6891
vn -0.0000 -0.1130 0.9936
vn -0.6891 -0.2243 0.6891
vn -0.0000 -0.2235 0.9747
vn 0.6996 -0.1453 0.6996
vn -0.6996 -0.1453 0.6996
vn -0.0000 -0.1258 0.9921
vn -0.6891 -0.2243 -0.6891
vn -0.0000 -0.1130 -0.9936
vn 0.6891 -0.2243 -0.6891
vn -0.0000 -0.2235 -0.9747
vn -0.6996 -0.1453 -0.6996
vn 0.6996 -0.1453 -0.6996
vn -0.0000 -0.1258 -0.9921
vn -0.9936 -0.1130 -0.0000
vn -0.9747 -0.2235 -0.0000
vn -0.9921 -0.1258 -0.0000
vn 0.9936 -0.1130 -0.0000
vn 0.9747 -0.2235 -0.0000
vn 0.9921 -0.1258 -0.0000
vn 0.7049 0.0781 -0.7049
vn -0.7049 0.0781 -0.7049
vn 0.7049 0.0781 0.7049
vn -0.7049 0.0781 0.7049
vn 0.6624 -0.3498 0.6624
vn -0.0000 -0.2941 0.9558
vn -0.6624 -0.3498 0.6624
vn -0.0000 -0.2975 0.9547
vn 0.6871 -0.2364 0.6871
vn -0.6871 -0.2364 0.6871
vn -0.0000 -0.2839 0.9588
vn -0.6624 -0.3498 -0.6624
vn -0.0000 -0.2941 -0.9558
vn 0.6624 -0.3498 -0.6624
vn -0.0000 -0.2975 -0.9547
vn -0.6871 -0.2364 -0.6871
vn 0.6871 -0.2364 -0.6871
vn -0.0000 -0.2839 -0.9588
vn -0.9558 -0.2941 -0.0000
vn -0.9547 -0.2975 -0.0000
vn -0.9588 -0.2839 -0.0000
vn 0.9558 -0.2941 -0.0000
vn 0.9547 -0.2975 -0.0000
vn 0.9588 -0.2839 -0.0000
vn 0.6292 -0.4563 0.6292
vn 0.6292 -0.4563 -0.6292
vn 0.6907 -0.2139 0.6907
vn 0.6907 -0.2139 -0.6907
vn -0.6292 -0.4563 -0.6292
vn -0.6907 -0.2139 -0.6907
vn -0.6292 -0.4563 0.6292
vn -0.6907 -0.2139 0.6907
vn -0.7126 0.5371 0.4513
vn -0.6718 0.1156 -0.7316
vn -0.7263 -0.5869 -0.3580
vn -0.7357 -0.3344 0.5890
vn -0.0514 -0.0132 0.9986
vn -0.0065 -0.9530 0.3028
vn 0.6788 -0.3754 0.6312
vn 0.7054 0.4846 0.5172
vn 0.7219 -0.5918 -0.3587
vn 0.7132 0.5830 -0.3891
vn 0.0325 0.9994 -0.0123
vn -0.0017 -0.2812 -0.9596
vn -0.6590 0.6192 -0.4270
vn -0.7119 -0.5286 0.4624
vn 0.7029 -0.5337 0.4703
vn 0.6788 0.1121 -0.7257
vn 0.0192 0.5430 -0.8395
vn 0.9974 -0.0576 -0.0427
vn -0.0209 -0.6404 0.7677
vn -0.9968 -0.0357 -0.0708
vn -0.0770 0.5369 -0.8402
vn 0.9579 0.1110 -0.2646
vn 0.6497 -0.5816 -0.4896
vn -0.1920 -0.3236 -0.9265
vn -0.8655 -0.0072 -0.5009
vn -0.2753 -0.9495 -0.1508
vn -0.8764 -0.3640 0.3152
vn -0.7817 0.4847 0.3925
vn -0.0134 -0.5884 0.8085
vn 0.0266 0.5782 0.8155
vn -0.0038 0.9994 0.0345
vn 0.8557 -0.2798 0.4352
vn 0.6862 0.6143 -0.3895
vn -0.0928 -0.5170 -0.8509
vn -0.7478 -0.5230 0.4090
vn 0.3367 0.1071 0.9355
vn 0.7466 0.5280 0.4046
vn -0.4178 -0.0571 0.9067
vn -0.6861 -0.6227 -0.3762
vn 0.5165 -0.0356 -0.8556
vn 0.7826 0.5366 0.3156
vn -0.2007 0.1102 0.9734
vn 0.1270 -0.5849 0.8011
vn 0.9134 -0.3208 0.2505
vn 0.8405 -0.0040 -0.5418
vn 0.2404 -0.9531 -0.1838
vn 0.1185 -0.3610 -0.9250
vn 0.0077 0.4847 -0.8747
vn -0.7207 -0.5782 -0.3824
vn -0.7375 0.5784 -0.3486
vn -0.0289 0.9994 -0.0192
vn -0.7824 -0.2762 0.5582
vn 0.0336 0.6127 0.7896
vn 0.7982 -0.5200 0.3041
vn -0.0325 -0.5204 -0.8533
vn -0.9860 0.1087 -0.1268
vn -0.6992 0.5280 0.4821
vn -0.6166 -0.0564 -0.7852
vn 0.6454 -0.6204 -0.4455
vn 0.5257 -0.0361 0.8499
vn -0.0000 -1.0000 -0.0000
vn 0.6433 0.7656 -0.0000
vn -0.0000 -0.4503 0.8929
vn -0.0000 -0.4503 -0.8929
vn -0.8929 -0.4503 -0.0000
vn -0.0000 1.0000 -0.0000
vn -0.6433 0.7656 -0.0000
vn -0.0000 0.7656 -0.6433
vn -0.0000 0.7656 0.6433
vn -0.0000 -0.2097 0.9778
vn -0.9972 0.0754 -0.0000
vn -0.0000 -0.2097 -0.9778
vn -0.0000 0.0754 0.9972
vn -0.9778 -0.2097 -0.0000
vn 0.9778 -0.2097 -0.0000
vn 0.9972 0.0754 -0.0000
vn -0.0000 -0.2195 0.9756
vn -0.0000 -0.1409 0.9900
vn -0.0000 -0.2195 -0.9756
vn -0.0000 -0.1409 -0.9900
vn -0.9756 -0.2195 -0.0000
vn -0.9900 -0.1409 -0.0000
vn 0.9756 -0.2195 -0.0000
vn 0.9900 -0.1409 -0.0000
vn -0.0000 0.0754 -0.9972
vn -0.0000 -0.3426 0.9395
vn -0.0000 -0.2309 0.9730
vn -0.0000 -0.3426 -0.9395
vn -0.0000 -0.2309 -0.9730
vn -0.9395 -0.3426 -0.0000
vn -0.9730 -0.2309 -0.0000
vn 0.9395 -0.3426 -0.0000
vn 0.9730 -0.2309 -0.0000
vn 0.8929 -0.4503 -0.0000
vn -0.9693 -0.2004 -0.1428
vn -0.0085 -0.6687 0.7435
vn 0.9694 -0.2051 -0.1352
vn 0.0057 0.2500 -0.9682
vn -0.0127 0.7170 0.6970
vn -0.0055 -0.8652 -0.5013
vn 0.0383 0.7914 -0.6102
vn 0.9873 0.0980 0.1250
vn -0.0431 -0.5650 0.8239
vn -0.9859 0.1528 0.0687
vn 0.5667 -0.1961 -0.8002
vn -0.6676 -0.6554 -0.3531
vn -0.3247 -0.2011 0.9242
vn 0.8610 0.2411 0.4478
vn -0.6146 0.7170 -0.3288
vn 0.4479 -0.8664 0.2208
vn 0.5329 0.7849 0.3162
vn -0.5594 0.1009 0.8227
vn -0.7227 -0.5495 -0.4191
vn 0.3899 0.1551 -0.9077
vn 0.4514 -0.1964 0.8704
vn 0.6108 -0.6576 -0.4410
vn -0.6761 -0.1995 -0.7093
vn -0.7896 0.2420 0.5639
vn 0.5732 0.7170 -0.3967
vn -0.4185 -0.8605 0.2906
vn -0.5243 0.7845 0.3310
vn -0.4765 0.1012 -0.8733
vn 0.7038 -0.5448 -0.4560
vn 0.6293 0.1548 0.7616
vt 0.878047 0.978160
vt 0.829971 0.978159
vt 0.829971 0.930084
vt 0.878047 0.930084
vt 0.781895 0.978159
vt 0.781895 0.930083
vt 0.781895 0.882008
vt 0.829971 0.882008
vt 0.878047 0.882008
vt 0.462638 0.021841
vt 0.462639 0.121106
vt 0.437766 0.121106
vt 0.419384 0.065095
vt 0.462638 0.220372
vt 0.419384 0.177118
vt 0.401114 0.158847
vt 0.408164 0.121106
vt 0.401114 0.083365
vt 0.743374 0.295312
vt 0.743375 0.343296
vt 0.704977 0.343832
vt 0.704977 0.279682
vt 0.743374 0.391280
vt 0.704977 0.407982
vt 0.666579 0.424684
vt 0.666579 0.344368
vt 0.666579 0.264053
vt 0.860563 0.528589
vt 0.860563 0.576418
vt 0.823401 0.577734
vt 0.823401 0.513792
vt 0.860563 0.624246
vt 0.823401 0.641675
vt 0.786239 0.659105
vt 0.786239 0.579049
vt 0.786239 0.498994
vt 0.742558 0.530869
vt 0.742558 0.578928
vt 0.704385 0.579182
vt 0.704385 0.514931
vt 0.742558 0.626987
vt 0.704385 0.643432
vt 0.666211 0.659877
vt 0.666211 0.579436
vt 0.666211 0.498994
vt 0.325632 0.083365
vt 0.363373 0.076315
vt 0.363373 0.121106
vt 0.318582 0.121106
vt 0.363373 0.165897
vt 0.325632 0.158847
vt 0.264107 0.220372
vt 0.264107 0.121106
vt 0.288980 0.121106
vt 0.307361 0.177118
vt 0.264107 0.021841
vt 0.307361 0.065095
vt 0.363373 0.220372
vt 0.363373 0.195499
vt 0.363373 0.021841
vt 0.363373 0.046713
vt 0.630340 0.033394
vt 0.630340 0.117071
vt 0.610738 0.117196
vt 0.610738 0.027617
vt 0.630340 0.200747
vt 0.610738 0.206774
vt 0.591135 0.212801
vt 0.591135 0.117321
vt 0.591135 0.021840
vt 0.146615 0.264275
vt 0.146615 0.363534
vt 0.126294 0.363437
vt 0.126294 0.264192
vt 0.146615 0.462792
vt 0.126294 0.462682
vt 0.105972 0.462571
vt 0.105972 0.363340
vt 0.105972 0.264109
vt 0.302598 0.509967
vt 0.302598 0.593373
vt 0.283353 0.593802
vt 0.283353 0.504514
vt 0.302598 0.676778
vt 0.283353 0.683090
vt 0.264107 0.689403
vt 0.264107 0.594232
vt 0.264107 0.499061
vt 0.062291 0.264596
vt 0.062291 0.363699
vt 0.042066 0.363442
vt 0.042066 0.264353
vt 0.062291 0.462802
vt 0.042066 0.462531
vt 0.021841 0.462260
vt 0.021841 0.363185
vt 0.021841 0.264109
vt 0.622898 0.275743
vt 0.622898 0.359551
vt 0.603351 0.359617
vt 0.603351 0.269898
vt 0.622898 0.443358
vt 0.603351 0.449336
vt 0.583803 0.455313
vt 0.583803 0.359683
vt 0.583803 0.264053
vt 0.622530 0.510326
vt 0.622530 0.593991
vt 0.603167 0.594226
vt 0.603167 0.504660
vt 0.622530 0.677655
vt 0.603167 0.683791
vt 0.583803 0.689927
vt 0.583803 0.594461
vt 0.583803 0.498994
vt 0.540122 0.264338
vt 0.540122 0.363427
vt 0.519619 0.363271
vt 0.519619 0.264196
vt 0.540122 0.462516
vt 0.519619 0.462346
vt 0.499116 0.462175
vt 0.499116 0.363114
vt 0.499116 0.264053
vt 0.021841 0.021842
vt 0.121133 0.021841
vt 0.121141 0.033100
vt 0.053818 0.053815
vt 0.220426 0.021841
vt 0.188463 0.053815
vt 0.208287 0.034002
vt 0.121148 0.034002
vt 0.034009 0.034003
vt 0.446910 0.272577
vt 0.359771 0.272577
vt 0.359771 0.273393
vt 0.425783 0.293704
vt 0.272631 0.272577
vt 0.293759 0.293704
vt 0.264107 0.264053
vt 0.359771 0.264053
vt 0.455435 0.264053
vt 0.220426 0.220427
vt 0.121133 0.220428
vt 0.121141 0.209176
vt 0.188463 0.188461
vt 0.021841 0.220428
vt 0.053818 0.188461
vt 0.034009 0.208282
vt 0.121148 0.208281
vt 0.208287 0.208281
vt 0.272631 0.446856
vt 0.359771 0.446856
vt 0.359771 0.446040
vt 0.293759 0.425729
vt 0.446910 0.446856
vt 0.425783 0.425728
vt 0.455435 0.455380
vt 0.359771 0.455380
vt 0.264107 0.455380
vt 0.220426 0.121134
vt 0.209178 0.121138
vt 0.208287 0.121141
vt 0.272631 0.359716
vt 0.273447 0.359716
vt 0.264107 0.359716
vt 0.021841 0.121135
vt 0.033103 0.121139
vt 0.034009 0.121142
vt 0.446910 0.359716
vt 0.446095 0.359716
vt 0.455435 0.359716
vt 0.547454 0.022184
vt 0.547454 0.120966
vt 0.526887 0.120780
vt 0.526887 0.022012
vt 0.547454 0.219748
vt 0.526887 0.219548
vt 0.506320 0.219349
vt 0.506320 0.120595
vt 0.506320 0.021841
vt 0.021840 0.506484
vt 0.105677 0.506484
vt 0.105683 0.516502
vt 0.049232 0.533872
vt 0.189514 0.506483
vt 0.162135 0.533872
vt 0.178180 0.517836
vt 0.105689 0.517836
vt 0.033199 0.517836
vt 0.532143 0.514176
vt 0.459653 0.514176
vt 0.459653 0.514435
vt 0.514888 0.531431
vt 0.387162 0.514176
vt 0.404417 0.531431
vt 0.379183 0.506197
vt 0.459653 0.506197
vt 0.540122 0.506197
vt 0.189514 0.674157
vt 0.105677 0.674158
vt 0.105683 0.664145
vt 0.162135 0.646775
vt 0.021840 0.674158
vt 0.049232 0.646776
vt 0.033199 0.662818
vt 0.105689 0.662818
vt 0.178180 0.662817
vt 0.387162 0.659158
vt 0.459653 0.659158
vt 0.459653 0.658898
vt 0.404417 0.641903
vt 0.532143 0.659158
vt 0.514888 0.641903
vt 0.540122 0.667137
vt 0.459653 0.667137
vt 0.379183 0.667137
vt 0.189514 0.590320
vt 0.179504 0.590323
vt 0.178180 0.590326
vt 0.387162 0.586667
vt 0.387421 0.586667
vt 0.379183 0.586667
vt 0.021840 0.590321
vt 0.031862 0.590324
vt 0.033199 0.590327
vt 0.532143 0.586667
vt 0.531884 0.586667
vt 0.540122 0.586667
vt 0.749088 0.052645
vt 0.749088 0.100622
vt 0.711555 0.101383
vt 0.711554 0.037243
vt 0.749088 0.148599
vt 0.711554 0.165524
vt 0.674021 0.182449
vt 0.674021 0.102145
vt 0.674021 0.021841
vt 0.448957 0.793769
vt 0.434369 0.820330
vt 0.407634 0.812352
vt 0.413467 0.782268
vt 0.419782 0.846891
vt 0.399482 0.840913
vt 0.379183 0.834936
vt 0.381479 0.804755
vt 0.383775 0.774575
vt 0.264107 0.852986
vt 0.290130 0.858514
vt 0.290130 0.886076
vt 0.264107 0.886954
vt 0.316152 0.864042
vt 0.316152 0.885199
vt 0.316152 0.906356
vt 0.290130 0.913639
vt 0.264107 0.920922
vt 0.730100 0.767571
vt 0.734157 0.797213
vt 0.708601 0.805978
vt 0.701805 0.776177
vt 0.738214 0.826855
vt 0.718317 0.833776
vt 0.698421 0.840696
vt 0.682316 0.815244
vt 0.666211 0.789792
vt 0.135021 0.883572
vt 0.162834 0.890994
vt 0.162834 0.918467
vt 0.135021 0.917430
vt 0.190647 0.898416
vt 0.190647 0.919504
vt 0.190647 0.940592
vt 0.162834 0.945940
vt 0.135021 0.951287
vt 0.549898 0.737277
vt 0.583846 0.735443
vt 0.586083 0.757601
vt 0.552266 0.759173
vt 0.617794 0.733608
vt 0.620162 0.755504
vt 0.622530 0.777399
vt 0.587277 0.781864
vt 0.554634 0.781068
vt 0.830287 0.174865
vt 0.830287 0.196062
vt 0.811528 0.196030
vt 0.811528 0.174833
vt 0.830287 0.217259
vt 0.811528 0.217227
vt 0.792769 0.217195
vt 0.792769 0.195998
vt 0.792769 0.174801
vt 0.620234 0.810143
vt 0.586120 0.810862
vt 0.617939 0.842887
vt 0.583918 0.841964
vt 0.549898 0.841041
vt 0.552266 0.811055
vt 0.738214 0.707554
vt 0.734157 0.737562
vt 0.701579 0.741868
vt 0.704273 0.705556
vt 0.668272 0.746675
vt 0.670333 0.703558
vt 0.951102 0.443690
vt 0.929310 0.443674
vt 0.928613 0.409697
vt 0.951784 0.409705
vt 0.907517 0.443658
vt 0.905443 0.409689
vt 0.903369 0.375719
vt 0.927917 0.375719
vt 0.952466 0.375719
vt 0.445574 0.710818
vt 0.447265 0.752293
vt 0.414082 0.748759
vt 0.412378 0.713726
vt 0.381479 0.745604
vt 0.379183 0.716634
vt 0.849729 0.786567
vt 0.835219 0.812447
vt 0.809612 0.807311
vt 0.815331 0.778346
vt 0.820710 0.838327
vt 0.801302 0.834550
vt 0.781895 0.830773
vt 0.784653 0.802607
vt 0.787411 0.774440
vt 0.073719 0.955230
vt 0.047780 0.943333
vt 0.047780 0.918333
vt 0.073719 0.924420
vt 0.021840 0.931436
vt 0.021840 0.912246
vt 0.021840 0.893055
vt 0.047780 0.893333
vt 0.073719 0.893611
vt 0.085278 0.779325
vt 0.088309 0.808844
vt 0.062885 0.815873
vt 0.056695 0.786727
vt 0.091340 0.838364
vt 0.071583 0.843869
vt 0.051827 0.849374
vt 0.036834 0.823189
vt 0.021840 0.797003
vt 0.604659 0.949116
vt 0.577279 0.947690
vt 0.577279 0.922313
vt 0.604659 0.917842
vt 0.549898 0.946264
vt 0.549898 0.926785
vt 0.549898 0.907306
vt 0.577279 0.896937
vt 0.604659 0.886568
vt 0.859688 0.369663
vt 0.825740 0.371497
vt 0.823502 0.349339
vt 0.857320 0.347767
vt 0.791792 0.373332
vt 0.789424 0.351436
vt 0.787055 0.329541
vt 0.822309 0.325076
vt 0.854952 0.325872
vt 0.904244 0.541390
vt 0.904244 0.520192
vt 0.923055 0.520192
vt 0.923055 0.541389
vt 0.904244 0.498994
vt 0.923055 0.498994
vt 0.941866 0.498994
vt 0.941866 0.520192
vt 0.941866 0.541389
vt 0.789351 0.296797
vt 0.823466 0.296078
vt 0.791647 0.264053
vt 0.825668 0.264976
vt 0.859688 0.265898
vt 0.857320 0.295885
vt 0.091340 0.726379
vt 0.088309 0.752852
vt 0.056148 0.754993
vt 0.058110 0.722109
vt 0.023360 0.757421
vt 0.024880 0.717839
vt 0.904571 0.264053
vt 0.926265 0.264081
vt 0.927046 0.298060
vt 0.903970 0.298046
vt 0.947958 0.264110
vt 0.950121 0.298074
vt 0.952284 0.332038
vt 0.927827 0.332038
vt 0.903369 0.332038
vt 0.843133 0.703558
vt 0.846431 0.745063
vt 0.815218 0.745497
vt 0.812514 0.710923
vt 0.784653 0.746363
vt 0.781895 0.718287
vt 0.199937 0.784661
vt 0.188776 0.812276
vt 0.164049 0.811344
vt 0.167866 0.783288
vt 0.177614 0.839891
vt 0.158774 0.839195
vt 0.139934 0.838500
vt 0.139688 0.810464
vt 0.139442 0.782428
vt 0.379183 0.900124
vt 0.404460 0.895348
vt 0.404460 0.916777
vt 0.379183 0.926534
vt 0.429737 0.890572
vt 0.429737 0.907021
vt 0.429737 0.923471
vt 0.404460 0.938207
vt 0.379183 0.952944
vt 0.942833 0.799812
vt 0.918121 0.790906
vt 0.927712 0.771558
vt 0.955348 0.775980
vt 0.893410 0.782001
vt 0.901205 0.767157
vt 0.908999 0.752313
vt 0.932789 0.752127
vt 0.967862 0.752149
vt 0.927712 0.732507
vt 0.955348 0.727854
vt 0.901205 0.737181
vt 0.893410 0.722049
vt 0.918121 0.712804
vt 0.942833 0.703559
vt 0.865401 0.127451
vt 0.831453 0.129285
vt 0.829215 0.107127
vt 0.863033 0.105555
vt 0.797505 0.131120
vt 0.795137 0.109224
vt 0.792769 0.087329
vt 0.828022 0.082864
vt 0.860665 0.083660
vt 0.873968 0.217259
vt 0.873968 0.196062
vt 0.892727 0.196030
vt 0.892727 0.217227
vt 0.873968 0.174864
vt 0.892727 0.174832
vt 0.911486 0.174801
vt 0.911486 0.195998
vt 0.911486 0.217195
vt 0.795065 0.054585
vt 0.829179 0.053866
vt 0.797360 0.021840
vt 0.831381 0.022763
vt 0.865401 0.023686
vt 0.863033 0.053673
vt 0.323520 0.749326
vt 0.320185 0.776330
vt 0.292146 0.773762
vt 0.293813 0.741205
vt 0.316850 0.803333
vt 0.290479 0.806319
vt 0.264107 0.809305
vt 0.264107 0.771194
vt 0.264107 0.733083
vt 0.667255 0.884377
vt 0.689056 0.884416
vt 0.689912 0.918394
vt 0.666733 0.918375
vt 0.710857 0.884454
vt 0.713090 0.918414
vt 0.715324 0.952373
vt 0.690767 0.952373
vt 0.666211 0.952373
vt 0.199937 0.717839
vt 0.199937 0.751250
vt 0.168402 0.754769
vt 0.167479 0.726045
vt 0.137231 0.758339
vt 0.135021 0.734250
s 1
usemtl Material
f 1/1/1 73/2/73 201/3/201 74/4/74
f 73/2/73 3/5/3 76/6/76 201/3/201
f 201/3/201 76/6/76 4/7/4 75/8/75
f 74/4/74 201/3/201 75/8/75 2/9/2
f 6/10/6 79/11/79 202/12/202 86/13/86
f 79/11/79 8/14/8 85/15/85 202/12/202
f 202/12/202 85/15/85 12/16/12 83/17/83
f 86/13/86 202/12/202 83/17/83 10/18/10
f 1/19/1 74/20/74 203/21/203 139/22/139
f 74/20/74 2/23/2 133/24/133 203/21/203
f 203/21/203 133/24/133 28/25/28 119/26/119
f 139/22/139 203/21/203 119/26/119 32/27/32
f 4/28/4 76/29/76 204/30/204 134/31/134
f 76/29/76 3/32/3 137/33/137 204/30/204
f 204/30/204 137/33/137 34/34/34 126/35/126
f 134/31/134 204/30/204 126/35/126 26/36/26
f 3/37/3 73/38/73 205/39/205 137/40/137
f 73/38/73 1/41/1 139/42/139 205/39/205
f 205/39/205 139/42/139 32/43/32 129/44/129
f 137/40/137 205/39/205 129/44/129 34/45/34
f 9/46/9 82/47/82 206/48/206 81/49/81
f 82/47/82 10/18/10 83/17/83 206/48/206
f 206/48/206 83/17/83 12/16/12 84/50/84
f 81/49/81 206/48/206 84/50/84 11/51/11
f 7/52/7 77/53/77 207/54/207 88/55/88
f 77/53/77 5/56/5 87/57/87 207/54/207
f 207/54/207 87/57/87 9/46/9 81/49/81
f 88/55/88 207/54/207 81/49/81 11/51/11
f 8/14/8 80/58/80 208/59/208 85/15/85
f 80/58/80 7/52/7 88/55/88 208/59/208
f 208/59/208 88/55/88 11/51/11 84/50/84
f 85/15/85 208/59/208 84/50/84 12/16/12
f 5/56/5 78/60/78 209/61/209 87/57/87
f 78/60/78 6/10/6 86/13/86 209/61/209
f 209/61/209 86/13/86 10/18/10 82/47/82
f 87/57/87 209/61/209 82/47/82 9/46/9
f 31/62/31 114/63/114 210/64/210 140/65/140
f 114/63/114 29/66/29 135/67/135 210/64/210
f 210/64/210 135/67/135 16/68/16 95/69/95
f 140/65/140 210/64/210 95/69/95 20/70/20
f 23/71/23 103/72/103 211/73/211 110/74/110
f 103/72/103 19/75/19 112/76/112 211/73/211
f 211/73/211 112/76/112 5/77/5 77/78/77
f 110/74/110 211/73/211 77/78/77 7/79/7
f 25/80/25 121/81/121 212/82/212 136/83/136
f 121/81/121 35/84/35 138/85/138 212/82/212
f 212/82/212 138/85/138 22/86/22 102/87/102
f 136/83/136 212/82/212 102/87/102 14/88/14
f 19/89/19 90/90/90 213/91/213 112/92/112
f 90/90/90 17/93/17 111/94/111 213/91/213
f 213/91/213 111/94/111 6/95/6 78/96/78
f 112/92/112 213/91/213 78/96/78 5/97/5
f 35/98/35 127/99/127 214/100/214 138/101/138
f 127/99/127 31/102/31 140/103/140 214/100/214
f 214/100/214 140/103/140 20/104/20 105/105/105
f 138/101/138 214/100/214 105/105/105 22/106/22
f 29/107/29 130/108/130 215/109/215 135/110/135
f 130/108/130 25/111/25 136/112/136 215/109/215
f 215/109/215 136/112/136 14/113/14 108/114/108
f 135/110/135 215/109/215 108/114/108 16/115/16
f 17/116/17 106/117/106 216/118/216 111/119/111
f 106/117/106 13/120/13 109/121/109 216/118/216
f 216/118/216 109/121/109 8/122/8 79/123/79
f 111/119/111 216/118/216 79/123/79 6/124/6
f 17/125/17 90/126/90 217/127/217 89/128/89
f 90/126/90 19/129/19 91/130/91 217/127/217
f 217/127/217 91/130/91 21/131/21 92/132/92
f 89/128/89 217/127/217 92/132/92 18/133/18
f 18/134/18 92/135/92 218/136/218 93/137/93
f 92/135/92 21/138/21 94/139/94 218/136/218
f 218/136/218 94/139/94 20/140/20 95/141/95
f 93/137/93 218/136/218 95/141/95 16/142/16
f 23/143/23 97/144/97 219/145/219 96/146/96
f 97/144/97 13/147/13 98/148/98 219/145/219
f 219/145/219 98/148/98 15/149/15 99/150/99
f 96/146/96 219/145/219 99/150/99 24/151/24
f 24/152/24 99/153/99 220/154/220 100/155/100
f 99/153/99 15/156/15 101/157/101 220/154/220
f 220/154/220 101/157/101 14/158/14 102/159/102
f 100/155/100 220/154/220 102/159/102 22/160/22
f 19/129/19 103/161/103 221/162/221 91/130/91
f 103/161/103 23/143/23 96/146/96 221/162/221
f 221/162/221 96/146/96 24/151/24 104/163/104
f 91/130/91 221/162/221 104/163/104 21/131/21
f 21/138/21 104/164/104 222/165/222 94/139/94
f 104/164/104 24/152/24 100/155/100 222/165/222
f 222/165/222 100/155/100 22/160/22 105/166/105
f 94/139/94 222/165/222 105/166/105 20/140/20
f 13/147/13 106/167/106 223/168/223 98/148/98
f 106/167/106 17/125/17 89/128/89 223/168/223
f 223/168/223 89/128/89 18/133/18 107/169/107
f 98/148/98 223/168/223 107/169/107 15/149/15
f 15/156/15 107/170/107 224/171/224 101/157/101
f 107/170/107 18/134/18 93/137/93 224/171/224
f 224/171/224 93/137/93 16/142/16 108/172/108
f 101/157/101 224/171/224 108/172/108 14/158/14
f 13/173/13 97/174/97 225/175/225 109/176/109
f 97/174/97 23/177/23 110/178/110 225/175/225
f 225/175/225 110/178/110 7/179/7 80/180/80
f 109/176/109 225/175/225 80/180/80 8/181/8
f 29/182/29 114/183/114 226/184/226 113/185/113
f 114/183/114 31/186/31 115/187/115 226/184/226
f 226/184/226 115/187/115 33/188/33 116/189/116
f 113/185/113 226/184/226 116/189/116 30/190/30
f 30/191/30 116/192/116 227/193/227 117/194/117
f 116/192/116 33/195/33 118/196/118 227/193/227
f 227/193/227 118/196/118 32/197/32 119/198/119
f 117/194/117 227/193/227 119/198/119 28/199/28
f 35/200/35 121/201/121 228/202/228 120/203/120
f 121/201/121 25/204/25 122/205/122 228/202/228
f 228/202/228 122/205/122 27/206/27 123/207/123
f 120/203/120 228/202/228 123/207/123 36/208/36
f 36/209/36 123/210/123 229/211/229 124/212/124
f 123/210/123 27/213/27 125/214/125 229/211/229
f 229/211/229 125/214/125 26/215/26 126/216/126
f 124/212/124 229/211/229 126/216/126 34/217/34
f 31/186/31 127/218/127 230/219/230 115/187/115
f 127/218/127 35/200/35 120/203/120 230/219/230
f 230/219/230 120/203/120 36/208/36 128/220/128
f 115/187/115 230/219/230 128/220/128 33/188/33
f 33/195/33 128/221/128 231/222/231 118/196/118
f 128/221/128 36/209/36 124/212/124 231/222/231
f 231/222/231 124/212/124 34/217/34 129/223/129
f 118/196/118 231/222/231 129/223/129 32/197/32
f 25/204/25 130/224/130 232/225/232 122/205/122
f 130/224/130 29/182/29 113/185/113 232/225/232
f 232/225/232 113/185/113 30/190/30 131/226/131
f 122/205/122 232/225/232 131/226/131 27/206/27
f 27/213/27 131/227/131 233/228/233 125/214/125
f 131/227/131 30/191/30 117/194/117 233/228/233
f 233/228/233 117/194/117 28/199/28 132/229/132
f 125/214/125 233/228/233 132/229/132 26/215/26
f 2/230/2 75/231/75 234/232/234 133/233/133
f 75/231/75 4/234/4 134/235/134 234/232/234
f 234/232/234 134/235/134 26/236/26 132/237/132
f 133/233/133 234/232/234 132/237/132 28/238/28
f 45/239/45 142/240/142 235/241/235 160/242/160
f 142/240/142 38/243/38 143/244/143 235/241/235
f 235/241/235 143/244/143 40/245/40 154/246/154
f 160/242/160 235/241/235 154/246/154 46/247/46
f 46/248/46 154/249/154 236/250/236 159/251/159
f 154/249/154 40/252/40 146/253/146 236/250/236
f 236/250/236 146/253/146 44/254/44 155/255/155
f 159/251/159 236/250/236 155/255/155 47/256/47
f 47/257/47 155/258/155 237/259/237 158/260/158
f 155/258/155 44/261/44 149/262/149 237/259/237
f 237/259/237 149/262/149 42/263/42 156/264/156
f 158/260/158 237/259/237 156/264/156 48/265/48
f 48/266/48 156/267/156 238/268/238 157/269/157
f 156/267/156 42/270/42 152/271/152 238/268/238
f 238/268/238 152/271/152 38/272/38 142/273/142
f 157/269/157 238/268/238 142/273/142 45/274/45
f 39/275/39 145/276/145 239/277/239 141/278/141
f 145/276/145 43/279/43 148/280/148 239/277/239
f 239/277/239 148/280/148 41/281/41 151/282/151
f 141/278/141 239/277/239 151/282/151 37/283/37
f 44/284/44 146/285/146 240/286/240 149/287/149
f 146/285/146 40/288/40 143/289/143 240/286/240
f 240/286/240 143/289/143 38/290/38 152/291/152
f 149/287/149 240/286/240 152/291/152 42/292/42
f 41/281/41 150/293/150 241/294/241 151/282/151
f 150/293/150 48/295/48 157/296/157 241/294/241
f 241/294/241 157/296/157 45/297/45 153/298/153
f 151/282/151 241/294/241 153/298/153 37/283/37
f 43/299/43 147/300/147 242/301/242 148/302/148
f 147/300/147 47/257/47 158/260/158 242/301/242
f 242/301/242 158/260/158 48/265/48 150/303/150
f 148/302/148 242/301/242 150/303/150 41/304/41
f 39/305/39 144/306/144 243/307/243 145/308/145
f 144/306/144 46/309/46 159/310/159 243/307/243
f 243/307/243 159/310/159 47/311/47 147/312/147
f 145/308/145 243/307/243 147/312/147 43/313/43
f 37/314/37 153/315/153 244/316/244 141/317/141
f 153/315/153 45/239/45 160/242/160 244/316/244
f 244/316/244 160/242/160 46/247/46 144/318/144
f 141/317/141 244/316/244 144/318/144 39/319/39
f 57/320/57 162/321/162 245/322/245 180/323/180
f 162/321/162 50/324/50 163/325/163 245/322/245
f 245/322/245 163/325/163 52/326/52 174/327/174
f 180/323/180 245/322/245 174/327/174 58/328/58
f 58/329/58 174/330/174 246/331/246 179/332/179
f 174/330/174 52/333/52 166/334/166 246/331/246
f 246/331/246 166/334/166 56/335/56 175/336/175
f 179/332/179 246/331/246 175/336/175 59/337/59
f 59/338/59 175/339/175 247/340/247 178/341/178
f 175/339/175 56/342/56 169/343/169 247/340/247
f 247/340/247 169/343/169 54/344/54 176/345/176
f 178/341/178 247/340/247 176/345/176 60/346/60
f 60/347/60 176/348/176 248/349/248 177/350/177
f 176/348/176 54/351/54 172/352/172 248/349/248
f 248/349/248 172/352/172 50/353/50 162/354/162
f 177/350/177 248/349/248 162/354/162 57/355/57
f 51/356/51 165/357/165 249/358/249 161/359/161
f 165/357/165 55/360/55 168/361/168 249/358/249
f 249/358/249 168/361/168 53/362/53 171/363/171
f 161/359/161 249/358/249 171/363/171 49/364/49
f 56/365/56 166/366/166 250/367/250 169/368/169
f 166/366/166 52/369/52 163/370/163 250/367/250
f 250/367/250 163/370/163 50/371/50 172/372/172
f 169/368/169 250/367/250 172/372/172 54/373/54
f 53/362/53 170/374/170 251/375/251 171/363/171
f 170/374/170 60/376/60 177/377/177 251/375/251
f 251/375/251 177/377/177 57/378/57 173/379/173
f 171/363/171 251/375/251 173/379/173 49/364/49
f 55/380/55 167/381/167 252/382/252 168/383/168
f 167/381/167 59/338/59 178/341/178 252/382/252
f 252/382/252 178/341/178 60/346/60 170/384/170
f 168/383/168 252/382/252 170/384/170 53/385/53
f 51/386/51 164/387/164 253/388/253 165/389/165
f 164/387/164 58/390/58 179/391/179 253/388/253
f 253/388/253 179/391/179 59/392/59 167/393/167
f 165/389/165 253/388/253 167/393/167 55/394/55
f 49/395/49 173/396/173 254/397/254 161/398/161
f 173/396/173 57/320/57 180/323/180 254/397/254
f 254/397/254 180/323/180 58/328/58 164/399/164
f 161/398/161 254/397/254 164/399/164 51/400/51
f 69/401/69 182/402/182 255/403/255 200/404/200
f 182/402/182 62/405/62 183/406/183 255/403/255
f 255/403/255 183/406/183 64/407/64 194/408/194
f 200/404/200 255/403/255 194/408/194 70/409/70
f 70/410/70 194/411/194 256/412/256 199/413/199
f 194/411/194 64/414/64 186/415/186 256/412/256
f 256/412/256 186/415/186 68/416/68 195/417/195
f 199/413/199 256/412/256 195/417/195 71/418/71
f 71/419/71 195/420/195 257/421/257 198/422/198
f 195/420/195 68/423/68 189/424/189 257/421/257
f 257/421/257 189/424/189 66/425/66 196/426/196
f 198/422/198 257/421/257 196/426/196 72/427/72
f 72/427/72 196/426/196 258/428/258 197/429/197
f 196/426/196 66/425/66 192/430/192 258/428/258
f 258/428/258 192/430/192 62/431/62 182/432/182
f 197/429/197 258/428/258 182/432/182 69/433/69
f 63/434/63 185/435/185 259/436/259 181/437/181
f 185/435/185 67/438/67 188/439/188 259/436/259
f 259/436/259 188/439/188 65/440/65 191/441/191
f 181/437/181 259/436/259 191/441/191 61/442/61
f 68/443/68 186/444/186 260/445/260 189/446/189
f 186/444/186 64/447/64 183/448/183 260/445/260
f 260/445/260 183/448/183 62/449/62 192/450/192
f 189/446/189 260/445/260 192/450/192 66/451/66
f 65/440/65 190/452/190 261/453/261 191/441/191
f 190/452/190 72/454/72 197/455/197 261/453/261
f 261/453/261 197/455/197 69/456/69 193/457/193
f 191/441/191 261/453/261 193/457/193 61/442/61
f 67/458/67 187/459/187 262/460/262 188/461/188
f 187/459/187 71/462/71 198/463/198 262/460/262
f 262/460/262 198/463/198 72/464/72 190/465/190
f 188/461/188 262/460/262 190/465/190 65/466/65
f 63/467/63 184/468/184 263/469/263 185/470/185
f 184/468/184 70/471/70 199/472/199 263/469/263
f 263/469/263 199/472/199 71/473/71 187/474/187
f 185/470/185 263/469/263 187/474/187 67/475/67
f 61/476/61 193/477/193 264/478/264 181/479/181
f 193/477/193 69/401/69 200/404/200 264/478/264
f 264/478/264 200/404/200 70/409/70 184/480/184
f 181/479/181 264/478/264 184/480/184 63/481/63
